<svg width="27" height="17" viewBox="0 0 27 17" fill="none" xmlns="http://www.w3.org/2000/svg">
<path fill-rule="evenodd" clip-rule="evenodd" d="M25.2739 9.57812H1.97181C1.25721 9.57812 0.677246 9.0962 0.677246 8.5C0.677246 7.9038 1.25721 7.42188 1.97181 7.42188H25.2739C25.9885 7.42188 26.5684 7.9038 26.5684 8.5C26.5684 9.0962 25.9885 9.57812 25.2739 9.57812ZM25.2739 2.75L1.97181 2.75C1.25721 2.75 0.677246 2.26808 0.677246 1.67188C0.677246 1.07567 1.25721 0.59375 1.97181 0.59375L25.2739 0.59375C25.9885 0.59375 26.5684 1.07567 26.5684 1.67188C26.5684 2.26808 25.9885 2.75 25.2739 2.75ZM25.2739 16.4062H1.97181C1.25721 16.4062 0.677246 15.9243 0.677246 15.3281C0.677246 14.7319 1.25721 14.25 1.97181 14.25H25.2739C25.9885 14.25 26.5684 14.7319 26.5684 15.3281C26.5684 15.9243 25.9885 16.4062 25.2739 16.4062Z" fill="white"/>
</svg>
