<svg width="55" height="55" viewBox="0 0 55 55" fill="none" xmlns="http://www.w3.org/2000/svg">
<path fill-rule="evenodd" clip-rule="evenodd" d="M27.5 0.78125C12.7673 0.78125 0.78125 12.7673 0.78125 27.5C0.78125 42.2327 12.7673 54.2188 27.5 54.2188C42.2327 54.2188 54.2188 42.2327 54.2188 27.5C54.2188 12.7673 42.2327 0.78125 27.5 0.78125ZM27.4998 48.8748C15.7142 48.8748 6.12482 39.2855 6.12482 27.4998C6.12482 15.7142 15.7142 6.12482 27.4998 6.12482C39.2855 6.12482 48.8748 15.7142 48.8748 27.4998C48.8748 39.2855 39.2855 48.8748 27.4998 48.8748ZM27.4996 30.1719C28.9772 30.1719 30.1715 28.9775 30.1715 27.5V16.8125C30.1715 15.335 28.9772 14.1406 27.4996 14.1406C26.0221 14.1406 24.8278 15.335 24.8278 16.8125V27.5C24.8278 28.9775 26.0221 30.1719 27.4996 30.1719ZM27.4996 35.2495C25.8778 35.2495 24.5605 36.564 24.5605 38.1885C24.5605 39.8104 25.8778 41.1249 27.4996 41.1249C29.1214 41.1249 30.4387 39.8104 30.4387 38.1885C30.4387 36.564 29.1214 35.2495 27.4996 35.2495Z" fill="#E6173E"/>
</svg>
