<svg width="20" height="20" viewBox="0 0 20 20" fill="none" xmlns="http://www.w3.org/2000/svg">
<path fill-rule="evenodd" clip-rule="evenodd" d="M2 8C2 4.691 4.691 2 8 2C11.309 2 14 4.691 14 8C14 11.309 11.309 14 8 14C4.691 14 2 11.309 2 8ZM19.707 18.293L14.312 12.897C15.366 11.543 16 9.846 16 8C16 3.589 12.411 0 8 0C3.589 0 0 3.589 0 8C0 12.411 3.589 16 8 16C9.846 16 11.542 15.365 12.897 14.312L18.293 19.707C18.488 19.902 18.744 20 19 20C19.256 20 19.512 19.902 19.707 19.707C20.098 19.316 20.098 18.684 19.707 18.293Z" fill="#0EA0C0"/>
</svg>
