<svg width="55" height="55" viewBox="0 0 55 55" fill="none" xmlns="http://www.w3.org/2000/svg">
<path fill-rule="evenodd" clip-rule="evenodd" d="M27.5 0.78125C12.7673 0.78125 0.78125 12.7673 0.78125 27.5C0.78125 42.2327 12.7673 54.2188 27.5 54.2188C42.2327 54.2188 54.2188 42.2327 54.2188 27.5C54.2188 12.7673 42.2327 0.78125 27.5 0.78125ZM27.5005 48.8749C15.7148 48.8749 6.12547 39.2855 6.12547 27.4999C6.12547 15.7142 15.7148 6.12488 27.5005 6.12488C39.2861 6.12488 48.8755 15.7142 48.8755 27.4999C48.8755 39.2855 39.2861 48.8749 27.5005 48.8749ZM33.6269 20.2672L24.8284 29.0657L21.3737 25.6109C20.329 24.5662 18.6404 24.5662 17.5957 25.6109C16.551 26.6556 16.551 28.3443 17.5957 29.389L22.9394 34.7327C23.4604 35.2537 24.1444 35.5156 24.8284 35.5156C25.5124 35.5156 26.1964 35.2537 26.7175 34.7327L37.405 24.0452C38.4497 23.0005 38.4497 21.3119 37.405 20.2672C36.3603 19.2225 34.6716 19.2225 33.6269 20.2672Z" fill="#73D852"/>
</svg>
